<mxfile host="app.diagrams.net" modified="2021-02-02T16:19:35.286Z" agent="5.0 (Macintosh; Intel Mac OS X 10_15_6) AppleWebKit/605.1.15 (KHTML, like Gecko) Version/14.0.3 Safari/605.1.15" etag="PeF0BFnx7WjU_Ur7_YIc" version="14.2.9" type="github" pages="2">
  <diagram id="dwUuTy2cjDjsSNc9xWwy" name="Page-1">
    <mxGraphModel dx="762" dy="343" grid="0" gridSize="10" guides="1" tooltips="1" connect="1" arrows="1" fold="1" page="1" pageScale="1" pageWidth="827" pageHeight="1169" math="0" shadow="0">
      <root>
        <mxCell id="0" />
        <mxCell id="1" parent="0" />
        <mxCell id="FPQnXXEWQoTXQ_zC0M5o-1" value="" style="ellipse;whiteSpace=wrap;html=1;fillColor=#dae8fc;strokeColor=none;" parent="1" vertex="1">
          <mxGeometry x="60" y="160" width="40" height="40" as="geometry" />
        </mxCell>
        <mxCell id="FPQnXXEWQoTXQ_zC0M5o-2" value="User" style="text;html=1;strokeColor=none;fillColor=none;align=center;verticalAlign=middle;whiteSpace=wrap;rounded=0;" parent="1" vertex="1">
          <mxGeometry x="60" y="200" width="40" height="20" as="geometry" />
        </mxCell>
        <mxCell id="FPQnXXEWQoTXQ_zC0M5o-6" value="POST" style="text;html=1;strokeColor=none;fillColor=none;align=center;verticalAlign=middle;whiteSpace=wrap;rounded=0;" parent="1" vertex="1">
          <mxGeometry x="130" y="170" width="40" height="20" as="geometry" />
        </mxCell>
        <mxCell id="FPQnXXEWQoTXQ_zC0M5o-11" value="" style="shape=flexArrow;endArrow=classic;html=1;endWidth=30.697674418604652;endSize=8.411627906976745;width=23.72093023255814;" parent="1" target="FPQnXXEWQoTXQ_zC0M5o-12" edge="1">
          <mxGeometry width="50" height="50" relative="1" as="geometry">
            <mxPoint x="100" y="179.88" as="sourcePoint" />
            <mxPoint x="220" y="179.88" as="targetPoint" />
          </mxGeometry>
        </mxCell>
        <mxCell id="FPQnXXEWQoTXQ_zC0M5o-14" style="edgeStyle=orthogonalEdgeStyle;rounded=0;orthogonalLoop=1;jettySize=auto;html=1;exitX=1;exitY=0.5;exitDx=0;exitDy=0;entryX=0;entryY=0.5;entryDx=0;entryDy=0;entryPerimeter=0;dashed=1;" parent="1" source="FPQnXXEWQoTXQ_zC0M5o-12" target="FPQnXXEWQoTXQ_zC0M5o-13" edge="1">
          <mxGeometry relative="1" as="geometry" />
        </mxCell>
        <mxCell id="FPQnXXEWQoTXQ_zC0M5o-19" style="edgeStyle=orthogonalEdgeStyle;rounded=0;orthogonalLoop=1;jettySize=auto;html=1;exitX=0.5;exitY=1;exitDx=0;exitDy=0;entryX=0;entryY=0.5;entryDx=0;entryDy=0;dashed=1;" parent="1" source="FPQnXXEWQoTXQ_zC0M5o-12" target="FPQnXXEWQoTXQ_zC0M5o-15" edge="1">
          <mxGeometry relative="1" as="geometry" />
        </mxCell>
        <mxCell id="FPQnXXEWQoTXQ_zC0M5o-12" value="Command&amp;nbsp;&lt;br&gt;Microservice" style="rounded=0;whiteSpace=wrap;html=1;fillColor=#ffe6cc;strokeColor=none;" parent="1" vertex="1">
          <mxGeometry x="250" y="150" width="120" height="60" as="geometry" />
        </mxCell>
        <mxCell id="FPQnXXEWQoTXQ_zC0M5o-13" value="" style="shape=cylinder3;whiteSpace=wrap;html=1;boundedLbl=1;backgroundOutline=1;size=15;" parent="1" vertex="1">
          <mxGeometry x="430" y="140" width="70" height="80" as="geometry" />
        </mxCell>
        <mxCell id="FPQnXXEWQoTXQ_zC0M5o-23" style="edgeStyle=orthogonalEdgeStyle;rounded=0;orthogonalLoop=1;jettySize=auto;html=1;exitX=0.602;exitY=0.978;exitDx=0;exitDy=0;entryX=0.5;entryY=0;entryDx=0;entryDy=0;dashed=1;exitPerimeter=0;" parent="1" source="FPQnXXEWQoTXQ_zC0M5o-15" target="FPQnXXEWQoTXQ_zC0M5o-22" edge="1">
          <mxGeometry relative="1" as="geometry" />
        </mxCell>
        <mxCell id="FPQnXXEWQoTXQ_zC0M5o-15" value="topic" style="rounded=1;whiteSpace=wrap;html=1;fillColor=#fff2cc;strokeColor=#d6b656;" parent="1" vertex="1">
          <mxGeometry x="250" y="250" width="180" height="30" as="geometry" />
        </mxCell>
        <mxCell id="FPQnXXEWQoTXQ_zC0M5o-26" style="edgeStyle=orthogonalEdgeStyle;rounded=0;orthogonalLoop=1;jettySize=auto;html=1;exitX=1;exitY=0.5;exitDx=0;exitDy=0;entryX=0;entryY=0.5;entryDx=0;entryDy=0;entryPerimeter=0;dashed=1;" parent="1" source="FPQnXXEWQoTXQ_zC0M5o-21" target="FPQnXXEWQoTXQ_zC0M5o-25" edge="1">
          <mxGeometry relative="1" as="geometry" />
        </mxCell>
        <mxCell id="FPQnXXEWQoTXQ_zC0M5o-21" value="Query&lt;br&gt;Microservice" style="rounded=0;whiteSpace=wrap;html=1;fillColor=#d5e8d4;strokeColor=#82b366;" parent="1" vertex="1">
          <mxGeometry x="250" y="350" width="120" height="60" as="geometry" />
        </mxCell>
        <mxCell id="FPQnXXEWQoTXQ_zC0M5o-22" value="" style="rounded=0;whiteSpace=wrap;html=1;fillColor=#e1d5e7;strokeColor=#9673a6;" parent="1" vertex="1">
          <mxGeometry x="348" y="335" width="20" height="20" as="geometry" />
        </mxCell>
        <mxCell id="FPQnXXEWQoTXQ_zC0M5o-24" value="KafkaListener" style="text;html=1;strokeColor=none;fillColor=none;align=center;verticalAlign=middle;whiteSpace=wrap;rounded=0;fontSize=9;" parent="1" vertex="1">
          <mxGeometry x="380" y="330" width="40" height="20" as="geometry" />
        </mxCell>
        <mxCell id="CqvscLPTOn5NIJj6WVxx-2" style="edgeStyle=orthogonalEdgeStyle;rounded=0;orthogonalLoop=1;jettySize=auto;html=1;exitX=0.5;exitY=1;exitDx=0;exitDy=0;exitPerimeter=0;entryX=0.5;entryY=1;entryDx=0;entryDy=0;dashed=1;fontSize=9;" parent="1" source="FPQnXXEWQoTXQ_zC0M5o-25" target="FPQnXXEWQoTXQ_zC0M5o-21" edge="1">
          <mxGeometry relative="1" as="geometry" />
        </mxCell>
        <mxCell id="FPQnXXEWQoTXQ_zC0M5o-25" value="&lt;br&gt;" style="shape=cylinder3;whiteSpace=wrap;html=1;boundedLbl=1;backgroundOutline=1;size=15;" parent="1" vertex="1">
          <mxGeometry x="440" y="340" width="70" height="80" as="geometry" />
        </mxCell>
        <mxCell id="FPQnXXEWQoTXQ_zC0M5o-27" value="" style="ellipse;whiteSpace=wrap;html=1;fillColor=#dae8fc;strokeColor=none;" parent="1" vertex="1">
          <mxGeometry x="60" y="360" width="40" height="40" as="geometry" />
        </mxCell>
        <mxCell id="FPQnXXEWQoTXQ_zC0M5o-28" value="User" style="text;html=1;strokeColor=none;fillColor=none;align=center;verticalAlign=middle;whiteSpace=wrap;rounded=0;" parent="1" vertex="1">
          <mxGeometry x="60" y="400" width="40" height="20" as="geometry" />
        </mxCell>
        <mxCell id="FPQnXXEWQoTXQ_zC0M5o-29" value="" style="shape=flexArrow;endArrow=classic;html=1;endWidth=30.697674418604652;endSize=8.411627906976745;width=23.72093023255814;" parent="1" edge="1">
          <mxGeometry width="50" height="50" relative="1" as="geometry">
            <mxPoint x="100" y="379.71000000000004" as="sourcePoint" />
            <mxPoint x="250" y="379.7957142857142" as="targetPoint" />
          </mxGeometry>
        </mxCell>
        <mxCell id="FPQnXXEWQoTXQ_zC0M5o-30" value="GET" style="edgeLabel;html=1;align=center;verticalAlign=middle;resizable=0;points=[];" parent="FPQnXXEWQoTXQ_zC0M5o-29" vertex="1" connectable="0">
          <mxGeometry x="-0.1707" y="1" relative="1" as="geometry">
            <mxPoint as="offset" />
          </mxGeometry>
        </mxCell>
        <mxCell id="FPQnXXEWQoTXQ_zC0M5o-33" value="&lt;font color=&quot;#97d077&quot;&gt;ACEPTED&lt;/font&gt;" style="text;html=1;strokeColor=none;fillColor=none;align=center;verticalAlign=middle;whiteSpace=wrap;rounded=0;fontSize=9;" parent="1" vertex="1">
          <mxGeometry x="138" y="200" width="40" height="20" as="geometry" />
        </mxCell>
        <mxCell id="CqvscLPTOn5NIJj6WVxx-6" value="1" style="ellipse;whiteSpace=wrap;html=1;aspect=fixed;fontSize=9;labelBackgroundColor=#000000;fontColor=#FFFFFF;fontStyle=1;fillColor=#000000;" parent="1" vertex="1">
          <mxGeometry x="236" y="150" width="14" height="14" as="geometry" />
        </mxCell>
        <mxCell id="CqvscLPTOn5NIJj6WVxx-9" value="2" style="ellipse;whiteSpace=wrap;html=1;aspect=fixed;fontSize=9;labelBackgroundColor=#000000;fontColor=#FFFFFF;fontStyle=1;fillColor=#000000;" parent="1" vertex="1">
          <mxGeometry x="393" y="164" width="14" height="14" as="geometry" />
        </mxCell>
        <mxCell id="CqvscLPTOn5NIJj6WVxx-10" value="3" style="ellipse;whiteSpace=wrap;html=1;aspect=fixed;fontSize=9;labelBackgroundColor=#000000;fontColor=#FFFFFF;fontStyle=1;fillColor=#000000;" parent="1" vertex="1">
          <mxGeometry x="210" y="250" width="14" height="14" as="geometry" />
        </mxCell>
        <mxCell id="CqvscLPTOn5NIJj6WVxx-11" value="5" style="ellipse;whiteSpace=wrap;html=1;aspect=fixed;fontSize=9;labelBackgroundColor=#000000;fontColor=#FFFFFF;fontStyle=1;fillColor=#000000;" parent="1" vertex="1">
          <mxGeometry x="334" y="326" width="14" height="14" as="geometry" />
        </mxCell>
        <mxCell id="CqvscLPTOn5NIJj6WVxx-12" value="6" style="ellipse;whiteSpace=wrap;html=1;aspect=fixed;fontSize=9;labelBackgroundColor=#000000;fontColor=#FFFFFF;fontStyle=1;fillColor=#000000;" parent="1" vertex="1">
          <mxGeometry x="426" y="360" width="14" height="14" as="geometry" />
        </mxCell>
        <mxCell id="CqvscLPTOn5NIJj6WVxx-13" value="1" style="ellipse;whiteSpace=wrap;html=1;aspect=fixed;fontSize=9;labelBackgroundColor=#FF0000;fontColor=#FFFFFF;fontStyle=1;fillColor=#FF0000;labelBorderColor=none;strokeColor=none;" parent="1" vertex="1">
          <mxGeometry x="110" y="355" width="14" height="14" as="geometry" />
        </mxCell>
        <mxCell id="CqvscLPTOn5NIJj6WVxx-14" value="2" style="ellipse;whiteSpace=wrap;html=1;aspect=fixed;fontSize=9;labelBackgroundColor=#FF0000;fontColor=#FFFFFF;fontStyle=1;fillColor=#FF0000;labelBorderColor=none;strokeColor=none;" parent="1" vertex="1">
          <mxGeometry x="370" y="430" width="14" height="14" as="geometry" />
        </mxCell>
        <mxCell id="CqvscLPTOn5NIJj6WVxx-16" value="4" style="ellipse;whiteSpace=wrap;html=1;aspect=fixed;fontSize=9;labelBackgroundColor=#000000;fontColor=#FFFFFF;fontStyle=1;fillColor=#000000;" parent="1" vertex="1">
          <mxGeometry x="122" y="203" width="14" height="14" as="geometry" />
        </mxCell>
        <mxCell id="CqvscLPTOn5NIJj6WVxx-18" value="&lt;font color=&quot;#97d077&quot;&gt;OK&lt;/font&gt;" style="text;html=1;strokeColor=none;fillColor=none;align=center;verticalAlign=middle;whiteSpace=wrap;rounded=0;fontSize=9;" parent="1" vertex="1">
          <mxGeometry x="148" y="390" width="40" height="20" as="geometry" />
        </mxCell>
        <mxCell id="CqvscLPTOn5NIJj6WVxx-19" value="3" style="ellipse;whiteSpace=wrap;html=1;aspect=fixed;fontSize=9;labelBackgroundColor=#FF0000;fontColor=#FFFFFF;fontStyle=1;fillColor=#FF0000;labelBorderColor=none;strokeColor=none;" parent="1" vertex="1">
          <mxGeometry x="143" y="393" width="14" height="14" as="geometry" />
        </mxCell>
        <mxCell id="utGcUq5_92awLmo4414_-2" value="&lt;font style=&quot;font-size: 9px;&quot; color=&quot;#ff0000&quot;&gt;NOT FOUND&lt;/font&gt;" style="text;html=1;strokeColor=none;fillColor=none;align=center;verticalAlign=middle;whiteSpace=wrap;rounded=0;labelBackgroundColor=none;fontSize=9;fontColor=#000000;" parent="1" vertex="1">
          <mxGeometry x="157" y="407" width="63" height="20" as="geometry" />
        </mxCell>
        <mxCell id="_3yo7ujyscOtkmC4vKnr-3" value="" style="shape=image;verticalLabelPosition=bottom;labelBackgroundColor=#ffffff;verticalAlign=top;aspect=fixed;imageAspect=0;image=data:image/png,iVBORw0KGgoAAAANSUhEUgAAAOEAAADhCAMAAAAJbSJIAAAAjVBMVEX///9PqkFMqT5JqDpEpjRApS8+pCxGpzb9/vxIqDlDpjLr9eo+pC3z+fJltFn3+/ZdsFHl8uPH4sPb7dnO5suTyIz0+fPf7t19vnTV6dJZr0y63Law1qxUrUam0aBfsVOLxIPC376ezpi527VwuGaEwXup06OBwHh0umqQx4ibzJQpngw1oSCv1qkwoBlD5rxGAAAOgklEQVR4nO1dC3eqOtMuARIIAl6raLHea932/f8/78uEW4KiIvSQ+PVZZ61TdynmIZO5JDPD29sf/vCHP7wa/K4H8OtYR12P4LfxM+t6BL+NGZ52PYTfhYfcfddj+F2ciGGNuh7EbyLChmG+8kr0TGQYBn5dder1gaCBdl0P5LcwiE2Dozfseii/gxEXUT6J8XvXg/kNRCQjaBgvaTEityBoGHTZ9Xhax9gWCTJ9uu16RC1jjI0S8KLrMbWKsYXKDA1r3fWoWsSYXBJka/F1bEaErxE0jPO465G1hBBdJ8hm8UXct5lZQdBA6CVixSWtIgjOjdf18JpjfIMgi6T6TtcDbArfqFqECYj2weKuchFm2mbT9RCb4XRTRjmw1pZ/eJ8gE9RB18N8Ht6dRZgAfXY9zucR3FuE6SROuh7os9g8IqMAW1MP1XMfJMgMv57nNZOHGRruV9eDfQbTR2UUoKXJqHa4r8kp0k9Oo4t9i5vQUJ8Gj5hCAVS385q1XY+gdlv9zmfNKTSMnl7KZltHkaaTiLoedB2Ece0pNAzrp+th18DSqk+Qeen6WAz/GYLMYuhzmPFRfxUmk6jNoVt9RZrA0mUSR89NIcyiJjtvJ/IsQ6rHmVvYf1JI2RzOux78QxjXddjESdTisGZVJ2wqQYtsovfHQ/srcDU4yHjCJRWgg9WvGxjKQJ/KGwyvXmx/gZ7yp6bLp41hAlP57Yxn4iYJtGsGdzB6LqwQYCtuEg8NhZTZi++uOdzGrKmQGihWWpv6jZeh6p7bqIFPmsFVWpv+NF6GTEwDlcV038DrzmGrnEc0b74MmW+q8Lai39BlS6ByCNUk+BXgqrsQP1pQNAw9dc+hmoT3Aix1N6SaxYY5zFXXRCrR2O1OoO6Wm9doA0OAraqqeX6zuwRlj7wfStR7iKGqzncbXimHsl5NjSyo2zBVjYK/2jGHCvttu3bMocKpJ8+ejF4yVDSpNmwlduIM52HXZK7Ci1siqGzCqdfWFDKoeQQ1aEuVsklUlGFb5pCZCzUrFFpk6CrKsD0pVZRhi5pGUYZ+a9ZCVYbtWXxVdekTicGVUJNhWxtRDIr6NC3GFor6pe3Fh6rGFm+T1hiqGh+2tk+jbIx/uzK9DkNVj4Fb2y9Vdq8tbOdwTeH90uYJURlDVfe82znGZ7AVNYdvbx/tHD6huGsilRj1WmFoqtvszGknyicfXROpRjt+G1YzOuT4aWMhqnsEzDBow+YrnX/ptBEiUqXrZZ+veSpAFA3wE0TNF6KyoVOK5rtR5NQ1h9vYNBZT1fvUDZqmJ6K5qsk0GZpqU2Wj3xyLhiYRKxs5ZXiq20AB1O+awH000zU6lAJ7jbxvpENNfpM8WtWNYYIm7rcOVbIM+6cDYYWzgyU8X0dKVS4mETF5Up2ax65H/iju9WWtgvrWPsfhqSBK2QOZK3Ce6o2hdElXGTUb0nG4q65HXQtPWAxFEzCq4Fd2Yq8CVfVIrQp1u+4pvUt6Hat6RtHWx1JkqBcoatnXe1RDn6pd3lyJn8eXoqXwYcwt7B9ditq+dSZ8MJfPUn5/rRKe/QhFd6flIkwQPbAUUV/RTMTHsL1LESmaEPwwlvco6v86xNNtiq/w2qfVrb03tQ98H8UNilq2m7+CfRXFVyFYOYuvIaIJvq9RtF+I4Nvb5iLlDeEX0KIiPkqxlIn0C3nvYCi/ifSotat2HdN5cexGtThFqw0/yOJFbTp318YxEVRlq36aY5j4qC/1llUZ76mYvuwUpm8QQtocEz4B3t9UsyOYeuA963Roaf00BnB0qnA/tubwIf/0FcL6akAlra39zswtQMJUT/PNtduAvD78gk53AWiPibsexK8Cuta9NsMIGGp8THEfo5dnOCX/Lxi+cGiRMtQrNagmBj2kY2JJHUwMqv952m34692DmxiO5/th6ADCMPQBV3TUu59cAteE4XuohBp7cBAzI57P+ynm8ziO5/1gtZW92oGZXTNP0N996xK7jM82MRGHSW3bppYLP1o4EGVghbOrTItahF9CNXnjZzgdbnZ86wrtfhbD4Xa5Dyh8RnZQrGR/NNzwoke0O/wcTrOYwgf7qI1F4l197EwwnenJhcRVRA/iRbzCI40639cx/ImlzcvM+VtPxMpgf89PsWwxyYgnXefd+H2ep6SNwuYVm3Lt85ZwBsIs8hLyXp4lzhs4arOhx6tTSrVCY744hWrahGGhY6HHijYZuf4VhsnLalGQfy4z5G+hIP/VEBuCMzTLjuzRlA7JOUOhm8aawrt3/6shNsT7VYZ8dZp54X7CsLhoYVW1gEltiOOJxsTzKlyQ0POulkMm+0z+dHQ1hGDe1/XbvfnXvun6HCbnHzmnMkO+3XWpSwfrL057/DU34lmqer1lwNbs9+VYB8tdjIw42JTqXKLTHI53p/uYUHNX7mg12gTM9/rcrxMqwjMYrj7Z/eazRYlkBUOQw6KitsyQfbRKUzjdztwetWaMX79nIgOZZ1DG4TcGzYzccmbP9HjGmNoEIYKP2Z399SbAtmud3vwvbHI34yzlp0fBGRuxRcAJ239st/t/6eNxPgi7HaUu+02pELiCoWeJBiFhmMvGgRp0Jj+p9T8Ms26unNUZHEBub9ZvQ8O2KOWH7/Kcb2xibKJptJwzcTDdZKac+ZkbKnKITEoswv+uJ6Q3nzDZRX44ncDoTMuyXJqMfPRJ6Ww4Ha1n8M29lfhVFQx59nGuTRNdmlwUeicbGeUuRU60wjC4+fy8GnreOuAlPV89/PUxXE/4NIpF5Gwg/fR2kOyE0uZjoxXmHlVg4ePy42cG3giK86W6srOGj0nOKaXnJF1hbCE79ZTHUGlDRYredYb8vDzvmMUZos/dcXbcBS4xzGtp4x5cRDKJ49qYzpJPA3BshfeDflNBM0PdSP5NPn//A9klv434Wsm+bI0NO4tqYHjzaJg8mAFBhf8xhS/uCWuiiiEvp3ZFhoZJGFy+PNz54dLz/iFCCSfIRvEJdgDdPD1kbIvluvzmNBMKaLRbtOaE3d/8UnZd/qYq/ots1Duz8KwTRY+EV1pVMTy5ZYbm12S1nx0DA0QdWe5FkMj8AGHgX6ZY78huUBgfNr9ixh2MNl8Q8E7u4llA292sVIT5ioUTAu0Hs5Jf9sCkchL+xIr7VzHcuIJRl3Spt/20eFJZWVR/JIaMr3DazuxLPjMQqfTEb4SKWDIoGJJCf/IefMnoI1tg6LCpzsopv025MdQWrHUR+lQx/HZFTfMp+TTOiecJlsumZYbM3hSzBt+K+ulz5p09RKMN8pI99HeYw4IhLEuSLAg43s6FDxim+evwo3Tq7dlSD9oqhmDyC2shM0w7V5SLbmWGYyp2MwKGWduYE5vPvriMwfhm8wZHvIWUcoY0uRbKEnD2UB03vx94ZZak25H09odBhbUAucxPy3l8KHV541E/lf9MZigJFcxbPodMickpTRCjZnL2LjM8FQwhZsvnaorz9hCDC4ZwSlyUk1Yw9EHR5JycOSqdu/LoonSaLjMcVTLksZfoj4IcZW1zSnMIwpIy5BoklVj278hOZwlaLRJpS4Iv3nsMuX7LZTlhKC47vjUgP7mbDNcCQ5A8SSBCXMwOvEtWaBIEDLNOnUN4EDvOa4RR/l5jYCC3oDu5opAMelcZwmPIbVTCUKoE565QKefjLsP0Z3jxNhUVMaykTB6gtb7wLtileAzzzcZqGpvxeONace6Sh7RcfDgxxa/mDC/6gXg9Kf0vYSieFfCgq/QW81vrUGQISlGKvfg6HNxn+La02dgJZj77SdDFIL22KBNsHQq3mPYu9mnekim0i8fsxGUpnfINLDlOO8i69HIdpj/73BEXFuJCULvwS0HmZIbMqTNJvJusJYcKJFnqSkOkdJSrDCHFkQjbhbwgV3rzJVhVtxRALSWGbCVXMHxbufKQmO3tZUrLN6QOLJxh8TD82ZW0yynYVyE7Y2BLbj5naMsb+VPmn5NA+IeQ7y+KwSiYD6tk8dmzFIRvXc2Q97Qm+V8z21b4Bj6SRPggMfxAbnxlJ/rLlR43eypiqJYoRUllRGzG6E68U8h3ngTNCVtVuLyzz1SYMDaw8YH0qXiuUDuRhU/QqQUV1suHSKNwJcTkGSegoGdHFxz5eyHztOgBQlgMm7fcx4wLMXWW7AvxRApwueMjbB+Cz4nLxeEjnp+ciXIIZtfdprfxQRu4RTyy4/7/B/w2/GYRcj6fPvf4zewuA+7y76f8NiGvRnApJf3j92E7LuRyCLEpPfK7RLFpCyvAGScl78heDQeO43jDiUtM2pd2R5wB37UxzGAN1wwW7Flahmztw9U8Kfiw+ysmVJtPTOAwx+bxYrRLSl2JvUv/yvmGf6Hu12RPKJ5lz3c0x0kzjJ4bsKexMXhUbZi9xFous4ILhFxi2XiXj2Ecw1YBDr4nAaZxsVSdGcqrbE2KMfxnsWFIi3kaEJzWACB2AbExdam5KW13+WemwjnOFvvVZrX/YsHy5xyd2RJf/kt/h//lkj7eYct12Q17s+Jxrv9HU9j/2F2OOPt4TrTrRi5ERDi/nb9xe5bLBofnB2Foi/9Ri4NwWJRi67gs6Y/9mdL0EvY/9m2YHD8ut/M8z/P9d36IKk6/wwURfpn8ThD+wXazmvwMxVu9r4eAMQPI6XSdfcokcpqeA1KLB+KiFxKOfyarzVY+4J8uFovtdvuRYTGcXm43Rus1uyq9Yru4es1/hfcjXkUDbzCKtvuYGIo3DH4CbJkW+jw8UPW7zdbEkNhSejezeyioulhHbHulQhnf0qrz1V34LirxCedIk3yCxzDC5VUXmsh6pewvCHSJZMmGVON+H1eQbJ0KC9FH5KX0DAuwYZu7n1v00acdvFg+uwO5P8g6/kSjUfQxo+e9Nik9j8I52rBLR5gTafdwrEvqWS0Mj7FNmX9so+PLVlj60eJw2EavZCT+8Ic//AHwf3u91m6g/KpnAAAAAElFTkSuQmCC;" parent="1" vertex="1">
          <mxGeometry x="455.5" y="376" width="39" height="39" as="geometry" />
        </mxCell>
        <mxCell id="vIcL2OX-35n-0vhwPqvr-1" value="" style="shape=image;verticalLabelPosition=bottom;labelBackgroundColor=#ffffff;verticalAlign=top;aspect=fixed;imageAspect=0;image=data:image/png,iVBORw0KGgoAAAANSUhEUgAAAOEAAADhCAMAAAAJbSJIAAAAjVBMVEX///9PqkFMqT5JqDpEpjRApS8+pCxGpzb9/vxIqDlDpjLr9eo+pC3z+fJltFn3+/ZdsFHl8uPH4sPb7dnO5suTyIz0+fPf7t19vnTV6dJZr0y63Law1qxUrUam0aBfsVOLxIPC376ezpi527VwuGaEwXup06OBwHh0umqQx4ibzJQpngw1oSCv1qkwoBlD5rxGAAAOgklEQVR4nO1dC3eqOtMuARIIAl6raLHea932/f8/78uEW4KiIvSQ+PVZZ61TdynmIZO5JDPD29sf/vCHP7wa/K4H8OtYR12P4LfxM+t6BL+NGZ52PYTfhYfcfddj+F2ciGGNuh7EbyLChmG+8kr0TGQYBn5dder1gaCBdl0P5LcwiE2Dozfseii/gxEXUT6J8XvXg/kNRCQjaBgvaTEityBoGHTZ9Xhax9gWCTJ9uu16RC1jjI0S8KLrMbWKsYXKDA1r3fWoWsSYXBJka/F1bEaErxE0jPO465G1hBBdJ8hm8UXct5lZQdBA6CVixSWtIgjOjdf18JpjfIMgi6T6TtcDbArfqFqECYj2weKuchFm2mbT9RCb4XRTRjmw1pZ/eJ8gE9RB18N8Ht6dRZgAfXY9zucR3FuE6SROuh7os9g8IqMAW1MP1XMfJMgMv57nNZOHGRruV9eDfQbTR2UUoKXJqHa4r8kp0k9Oo4t9i5vQUJ8Gj5hCAVS385q1XY+gdlv9zmfNKTSMnl7KZltHkaaTiLoedB2Ece0pNAzrp+th18DSqk+Qeen6WAz/GYLMYuhzmPFRfxUmk6jNoVt9RZrA0mUSR89NIcyiJjtvJ/IsQ6rHmVvYf1JI2RzOux78QxjXddjESdTisGZVJ2wqQYtsovfHQ/srcDU4yHjCJRWgg9WvGxjKQJ/KGwyvXmx/gZ7yp6bLp41hAlP57Yxn4iYJtGsGdzB6LqwQYCtuEg8NhZTZi++uOdzGrKmQGihWWpv6jZeh6p7bqIFPmsFVWpv+NF6GTEwDlcV038DrzmGrnEc0b74MmW+q8Lai39BlS6ByCNUk+BXgqrsQP1pQNAw9dc+hmoT3Aix1N6SaxYY5zFXXRCrR2O1OoO6Wm9doA0OAraqqeX6zuwRlj7wfStR7iKGqzncbXimHsl5NjSyo2zBVjYK/2jGHCvttu3bMocKpJ8+ejF4yVDSpNmwlduIM52HXZK7Ci1siqGzCqdfWFDKoeQQ1aEuVsklUlGFb5pCZCzUrFFpk6CrKsD0pVZRhi5pGUYZ+a9ZCVYbtWXxVdekTicGVUJNhWxtRDIr6NC3GFor6pe3Fh6rGFm+T1hiqGh+2tk+jbIx/uzK9DkNVj4Fb2y9Vdq8tbOdwTeH90uYJURlDVfe82znGZ7AVNYdvbx/tHD6huGsilRj1WmFoqtvszGknyicfXROpRjt+G1YzOuT4aWMhqnsEzDBow+YrnX/ptBEiUqXrZZ+veSpAFA3wE0TNF6KyoVOK5rtR5NQ1h9vYNBZT1fvUDZqmJ6K5qsk0GZpqU2Wj3xyLhiYRKxs5ZXiq20AB1O+awH000zU6lAJ7jbxvpENNfpM8WtWNYYIm7rcOVbIM+6cDYYWzgyU8X0dKVS4mETF5Up2ax65H/iju9WWtgvrWPsfhqSBK2QOZK3Ce6o2hdElXGTUb0nG4q65HXQtPWAxFEzCq4Fd2Yq8CVfVIrQp1u+4pvUt6Hat6RtHWx1JkqBcoatnXe1RDn6pd3lyJn8eXoqXwYcwt7B9ditq+dSZ8MJfPUn5/rRKe/QhFd6flIkwQPbAUUV/RTMTHsL1LESmaEPwwlvco6v86xNNtiq/w2qfVrb03tQ98H8UNilq2m7+CfRXFVyFYOYuvIaIJvq9RtF+I4Nvb5iLlDeEX0KIiPkqxlIn0C3nvYCi/ifSotat2HdN5cexGtThFqw0/yOJFbTp318YxEVRlq36aY5j4qC/1llUZ76mYvuwUpm8QQtocEz4B3t9UsyOYeuA963Roaf00BnB0qnA/tubwIf/0FcL6akAlra39zswtQMJUT/PNtduAvD78gk53AWiPibsexK8Cuta9NsMIGGp8THEfo5dnOCX/Lxi+cGiRMtQrNagmBj2kY2JJHUwMqv952m34692DmxiO5/th6ADCMPQBV3TUu59cAteE4XuohBp7cBAzI57P+ynm8ziO5/1gtZW92oGZXTNP0N996xK7jM82MRGHSW3bppYLP1o4EGVghbOrTItahF9CNXnjZzgdbnZ86wrtfhbD4Xa5Dyh8RnZQrGR/NNzwoke0O/wcTrOYwgf7qI1F4l197EwwnenJhcRVRA/iRbzCI40639cx/ImlzcvM+VtPxMpgf89PsWwxyYgnXefd+H2ep6SNwuYVm3Lt85ZwBsIs8hLyXp4lzhs4arOhx6tTSrVCY744hWrahGGhY6HHijYZuf4VhsnLalGQfy4z5G+hIP/VEBuCMzTLjuzRlA7JOUOhm8aawrt3/6shNsT7VYZ8dZp54X7CsLhoYVW1gEltiOOJxsTzKlyQ0POulkMm+0z+dHQ1hGDe1/XbvfnXvun6HCbnHzmnMkO+3XWpSwfrL057/DU34lmqer1lwNbs9+VYB8tdjIw42JTqXKLTHI53p/uYUHNX7mg12gTM9/rcrxMqwjMYrj7Z/eazRYlkBUOQw6KitsyQfbRKUzjdztwetWaMX79nIgOZZ1DG4TcGzYzccmbP9HjGmNoEIYKP2Z399SbAtmud3vwvbHI34yzlp0fBGRuxRcAJ239st/t/6eNxPgi7HaUu+02pELiCoWeJBiFhmMvGgRp0Jj+p9T8Ms26unNUZHEBub9ZvQ8O2KOWH7/Kcb2xibKJptJwzcTDdZKac+ZkbKnKITEoswv+uJ6Q3nzDZRX44ncDoTMuyXJqMfPRJ6Ww4Ha1n8M29lfhVFQx59nGuTRNdmlwUeicbGeUuRU60wjC4+fy8GnreOuAlPV89/PUxXE/4NIpF5Gwg/fR2kOyE0uZjoxXmHlVg4ePy42cG3giK86W6srOGj0nOKaXnJF1hbCE79ZTHUGlDRYredYb8vDzvmMUZos/dcXbcBS4xzGtp4x5cRDKJ49qYzpJPA3BshfeDflNBM0PdSP5NPn//A9klv434Wsm+bI0NO4tqYHjzaJg8mAFBhf8xhS/uCWuiiiEvp3ZFhoZJGFy+PNz54dLz/iFCCSfIRvEJdgDdPD1kbIvluvzmNBMKaLRbtOaE3d/8UnZd/qYq/ots1Duz8KwTRY+EV1pVMTy5ZYbm12S1nx0DA0QdWe5FkMj8AGHgX6ZY78huUBgfNr9ixh2MNl8Q8E7u4llA292sVIT5ioUTAu0Hs5Jf9sCkchL+xIr7VzHcuIJRl3Spt/20eFJZWVR/JIaMr3DazuxLPjMQqfTEb4SKWDIoGJJCf/IefMnoI1tg6LCpzsopv025MdQWrHUR+lQx/HZFTfMp+TTOiecJlsumZYbM3hSzBt+K+ulz5p09RKMN8pI99HeYw4IhLEuSLAg43s6FDxim+evwo3Tq7dlSD9oqhmDyC2shM0w7V5SLbmWGYyp2MwKGWduYE5vPvriMwfhm8wZHvIWUcoY0uRbKEnD2UB03vx94ZZak25H09odBhbUAucxPy3l8KHV541E/lf9MZigJFcxbPodMickpTRCjZnL2LjM8FQwhZsvnaorz9hCDC4ZwSlyUk1Yw9EHR5JycOSqdu/LoonSaLjMcVTLksZfoj4IcZW1zSnMIwpIy5BoklVj278hOZwlaLRJpS4Iv3nsMuX7LZTlhKC47vjUgP7mbDNcCQ5A8SSBCXMwOvEtWaBIEDLNOnUN4EDvOa4RR/l5jYCC3oDu5opAMelcZwmPIbVTCUKoE565QKefjLsP0Z3jxNhUVMaykTB6gtb7wLtileAzzzcZqGpvxeONace6Sh7RcfDgxxa/mDC/6gXg9Kf0vYSieFfCgq/QW81vrUGQISlGKvfg6HNxn+La02dgJZj77SdDFIL22KBNsHQq3mPYu9mnekim0i8fsxGUpnfINLDlOO8i69HIdpj/73BEXFuJCULvwS0HmZIbMqTNJvJusJYcKJFnqSkOkdJSrDCHFkQjbhbwgV3rzJVhVtxRALSWGbCVXMHxbufKQmO3tZUrLN6QOLJxh8TD82ZW0yynYVyE7Y2BLbj5naMsb+VPmn5NA+IeQ7y+KwSiYD6tk8dmzFIRvXc2Q97Qm+V8z21b4Bj6SRPggMfxAbnxlJ/rLlR43eypiqJYoRUllRGzG6E68U8h3ngTNCVtVuLyzz1SYMDaw8YH0qXiuUDuRhU/QqQUV1suHSKNwJcTkGSegoGdHFxz5eyHztOgBQlgMm7fcx4wLMXWW7AvxRApwueMjbB+Cz4nLxeEjnp+ciXIIZtfdprfxQRu4RTyy4/7/B/w2/GYRcj6fPvf4zewuA+7y76f8NiGvRnApJf3j92E7LuRyCLEpPfK7RLFpCyvAGScl78heDQeO43jDiUtM2pd2R5wB37UxzGAN1wwW7Flahmztw9U8Kfiw+ysmVJtPTOAwx+bxYrRLSl2JvUv/yvmGf6Hu12RPKJ5lz3c0x0kzjJ4bsKexMXhUbZi9xFous4ILhFxi2XiXj2Ecw1YBDr4nAaZxsVSdGcqrbE2KMfxnsWFIi3kaEJzWACB2AbExdam5KW13+WemwjnOFvvVZrX/YsHy5xyd2RJf/kt/h//lkj7eYct12Q17s+Jxrv9HU9j/2F2OOPt4TrTrRi5ERDi/nb9xe5bLBofnB2Foi/9Ri4NwWJRi67gs6Y/9mdL0EvY/9m2YHD8ut/M8z/P9d36IKk6/wwURfpn8ThD+wXazmvwMxVu9r4eAMQPI6XSdfcokcpqeA1KLB+KiFxKOfyarzVY+4J8uFovtdvuRYTGcXm43Rus1uyq9Yru4es1/hfcjXkUDbzCKtvuYGIo3DH4CbJkW+jw8UPW7zdbEkNhSejezeyioulhHbHulQhnf0qrz1V34LirxCedIk3yCxzDC5VUXmsh6pewvCHSJZMmGVON+H1eQbJ0KC9FH5KX0DAuwYZu7n1v00acdvFg+uwO5P8g6/kSjUfQxo+e9Nik9j8I52rBLR5gTafdwrEvqWS0Mj7FNmX9so+PLVlj60eJw2EavZCT+8Ic//AHwf3u91m6g/KpnAAAAAElFTkSuQmCC;" vertex="1" parent="1">
          <mxGeometry x="445.5" y="173" width="39" height="39" as="geometry" />
        </mxCell>
        <mxCell id="vIcL2OX-35n-0vhwPqvr-2" value="" style="shape=image;verticalLabelPosition=bottom;labelBackgroundColor=#ffffff;verticalAlign=top;aspect=fixed;imageAspect=0;image=data:image/png,iVBORw0KGgoAAAANSUhEUgAAAOEAAADhCAMAAAAJbSJIAAAAhFBMVEX///8AAABhYWHNzc3T09PCwsJKSkpycnL8/Pz19fXg4OC0tLTj4+Pa2tp/f3/n5+fv7++6urrGxsZoaGg4ODgnJycXFxeXl5eKiop3d3c+Pj4vLy+fn5+urq5PT0+oqKhZWVkeHh6FhYWQkJCbm5tFRUULCws6OjohISEpKSkYGBgyMjKhW/z/AAAIk0lEQVR4nO2caXuyOhCGiYJsoqitS91QW63t//9/h5CFCQFJ+2IRz9wfepUIYx5IJpNJ0LIQBEEQBEEQBEEQBEEQBEEQBEEQBEEQBEEQBEEQBEEQBEEQBEEQBEEQBEGQ/w3O6IOQz9570HZF7sQ7kbz1267MHQjmBDJruz6NMyUFrn7bVWqWqCgwldh2nRrF0wU+WUMd5bLcN/n/tO1qNUfMJZ0zTbHLD1/arldzbJiiV089JlGrtWqSDyYolgU9VrBosU7NwvSs8oIhK0naqlDT8G7ogCI2/L+2VqWGCfRex9rtubUqNcyYKYSx6DorObRWpabR/IrPSt7aq1LDsCdG8oIFKxi1V6WGOTFBrjgWUapz66JOMVQjUUeEbcpJ/SON5w6z0Cux8PD0hKZRONl8i4MTOGPylYfkxw5q9EkZ+edeon7SwRSAUyLQlp/68+JnYYt1/SVbTSAQoQnspBMqPkUwOezpAmGY3gD+n6RMYiikBwTkKZzecvQp/k+Uax2K7J2wvrVeydtkc+5k6+mGmma8fM0qf1gOYfGFa2KutS+aLEyq9hXRAR1Yx2eyo2bWtMRP797Omu7Sf4kfn8/Ai03k/aNxsZ39d8dYin2dGsoEhZ7nsdugnMUU9viRSzwa7I5PqY6Q+l2PrOL46DvfmcIxiSIZ5e9JicLB/RSG2ReslDI+4T/KAh6oz6sUxmT3Ts9KhaVOKkkf3HKXfeDQZ0MV5hcOyQMo5N0T9K2ZVqIoHI0CQhXuLzvLOVtkaK0n2QfMmfnZHeIXrh5B4UXrGmFeIw5U6JEwIpNU4XFvWd/HKHGtCxt5nG/P96lCX/pOLu7iXltUeM3KYPKUO9c8IlAULsjb5eXVytqiTT4uH8TbfGWfODR5p7RSnl1IG7U1nNnWnylUPc2L9qWTmwqzctLPdLzRuu+W1mC+Dc++Q/0qVbjZvMPrQL+8r8LgtBaN5h0Mh7wfgnGNdx5wDlBoZy4p3PvpkOG7tDVG6R3b9pK9FdHxxvX80WjEmwnrmZe/UWgPCMSVfoT70o08U4Tp4GJ1tDCHKUxALe6ncEWKbHklxLRJjvA8u+qCq/9NIbjubgr9V00gcy7jXX7MXH7MBcJu+PgKy6eHJLGWyvH1tN3I4FWJrB5e4Sf5Ocpa/6MrdGW1V6FtTxffuh6NvWLhwRXaotYyL9M/KGo+J6TIUjXx4ArFkijM6sO5Yvq44oIn2hdMPLZCkRxVN9HI1NOKDfULoC8ZF208tkLuL7eFYq5mIo69LRO9XpbsJ/qtwumfKGSOVNt5sS30TYofV2RnCgodxkTERfYxC25n9HZ5k+wzWhw4LNk+mMqzCwq5obDMkJUZkk+gGr+8Z4mHaHY7i3N8Bg+voxfZvs+O+D76wYYo6LMnEWjxNaMo30RB21Zu6Da8G2pdS/TEnysUAnm7B5vJCJ2Z5Wb3yie6QiGQ3331hrjGCqdVJy5/qVAI5O1nRFR2xgqFQJ64PVYbuo1TdeLidwqFQJ64KqiQ1CsUAif1hm7T8DMUAnlCWWaarqcwlPNPYtAPhUB+p8birFdqCERd9ZVrth8KgSKnKyYiXHD/DCs2nLJ2MuhPUxzFl67UCy0xx+GC7Tk0dJtGfakQKGZWIiCUg4x3UCpWOR7OCncq0gxdjRU2OB7OxI2X8d+qcJy3NnZUEdMkwj3JOeiocJzvVDNQeDumkcUGMY0gKBhRcndK965QKMjvDGvdMK0gluYNFNbEpTwINYlLOfmix1h7hLLMRGFeo7jEUGyssHZusTSdW2h3qtRPn00VBlqxaujLWGHt/JDoY1Hp/JAU68vmlQVn1TNVqBm6VBuq4Tdz/I1iQWml+c4jlmDeqd82M1UIvNykzJBrrrCpPI1ALh//o8J8KZ0p/Pi9wspcm9o8lVyb0mRUhXLUYv2wsP/vYq5QxiGlhj5+oLA6X+qDTHEhXwqXopnCV+GgPnkxX1xVF+lJvcK5GPG/+FrCUL1zuiEDKnPegcj2G+W8eYI8USqhDLVKpF+hcCc7zk4xpLhwxVFHk/q1/6hq3YIHN2brFiJk4U4i4Y8EoOwSrM7TiJCFO23WOJRm+pIbCs6j/dJgAwxYe9qA9sA9reHak0g8Mm/Dj8By3Um5PTcyUWIHyAQaAu1mkRuKiR+kj9DoZa2y9cOB/FLBzfVDMVFlToIfyE0AQmC9QrmiMISGZNUWwJBrW2/ht+WZbNpuYg2Yd9M5MJhGszTP5E/ykbZeoZgwnT1wV8mVGbpAQ6ljG9A/Hwb7jsoUsmdYso5foVC8YZTAamoYKBSGmLdJqg0daCXTR90z2KdVppD3Q30vRvkacB7KZ07CO5NSDBTKnTzM0KHS0MC3dk7afk023pcp5KO+tp8G2lOziWIXYObc/Ktao625Qmko8zb+WjUUSkPTnnWyTvFGmctWULYnSgwA9XuiEnEoZuhsCIXZtvWwZMRPckNMoQzPVpWGrgEwdBpE/ngFzFRRsa9NDJQ39rVFMzclD7ldBm8MQ1HRl/RheNmp3HHZheusICvIZy6rckPfNMMIDEWjnlv/pl3l3sQ8Vqzcm1hL4IThtIkNm/9gqLi/FEQIM1JCo/tL/wJ9kguiyYMusHN7hPVVXjh58DWJxbzVwxOXCIShaPf36ksBle9bOCAP0MH3LUTwUHxnRlFi83dmtt3TJ+cD2ntPBgusHYG3wLxgUZDcdfikXX//8GleVw90B6m9kdhtKt8DfhqFPFcHQ1cWXs8rL+kaTKH+Pv4dd5T/MTwxp/2mgsmUshvwwUH7XQz75lVdouK3TdZt16tB8pz+k/4+TflvDP18q+EjY+sCP+uv6hTab319PtlvfdH1G0XgU/0MluDZf3OP8uy/m4ggCIIgCIIgCIIgCIIgCIIgCIIgCIIgCIIgCIIgCIIgCIIgCIIgCIIgCIJ0mP8AvdRk0Zd6tPcAAAAASUVORK5CYII=;" vertex="1" parent="1">
          <mxGeometry x="432" y="229" width="72" height="72" as="geometry" />
        </mxCell>
      </root>
    </mxGraphModel>
  </diagram>
  <diagram id="2C0VMGDJdFqffSNqi8nd" name="Page-2">
    <mxGraphModel dx="716" dy="378" grid="1" gridSize="10" guides="1" tooltips="1" connect="1" arrows="1" fold="1" page="1" pageScale="1" pageWidth="827" pageHeight="1169" math="0" shadow="0">
      <root>
        <mxCell id="nDmpK35CxZWImTQ2deqX-0" />
        <mxCell id="nDmpK35CxZWImTQ2deqX-1" parent="nDmpK35CxZWImTQ2deqX-0" />
        <mxCell id="Ew7H27AF6_pMdPy1NghV-0" value="" style="ellipse;whiteSpace=wrap;html=1;fillColor=#dae8fc;strokeColor=none;" vertex="1" parent="nDmpK35CxZWImTQ2deqX-1">
          <mxGeometry x="60" y="160" width="40" height="40" as="geometry" />
        </mxCell>
        <mxCell id="Ew7H27AF6_pMdPy1NghV-1" value="User" style="text;html=1;strokeColor=none;fillColor=none;align=center;verticalAlign=middle;whiteSpace=wrap;rounded=0;" vertex="1" parent="nDmpK35CxZWImTQ2deqX-1">
          <mxGeometry x="60" y="200" width="40" height="20" as="geometry" />
        </mxCell>
        <mxCell id="Ew7H27AF6_pMdPy1NghV-2" value="POST" style="text;html=1;strokeColor=none;fillColor=none;align=center;verticalAlign=middle;whiteSpace=wrap;rounded=0;" vertex="1" parent="nDmpK35CxZWImTQ2deqX-1">
          <mxGeometry x="130" y="170" width="40" height="20" as="geometry" />
        </mxCell>
        <mxCell id="Ew7H27AF6_pMdPy1NghV-3" value="" style="shape=flexArrow;endArrow=classic;html=1;endWidth=30.697674418604652;endSize=8.411627906976745;width=23.72093023255814;" edge="1" parent="nDmpK35CxZWImTQ2deqX-1" target="Ew7H27AF6_pMdPy1NghV-6">
          <mxGeometry width="50" height="50" relative="1" as="geometry">
            <mxPoint x="100" y="179.88" as="sourcePoint" />
            <mxPoint x="220" y="179.88" as="targetPoint" />
          </mxGeometry>
        </mxCell>
        <mxCell id="Ew7H27AF6_pMdPy1NghV-4" style="edgeStyle=orthogonalEdgeStyle;rounded=0;orthogonalLoop=1;jettySize=auto;html=1;exitX=1;exitY=0.5;exitDx=0;exitDy=0;entryX=0;entryY=0.5;entryDx=0;entryDy=0;entryPerimeter=0;dashed=1;" edge="1" parent="nDmpK35CxZWImTQ2deqX-1" source="Ew7H27AF6_pMdPy1NghV-6" target="Ew7H27AF6_pMdPy1NghV-7">
          <mxGeometry relative="1" as="geometry" />
        </mxCell>
        <mxCell id="Ew7H27AF6_pMdPy1NghV-5" style="edgeStyle=orthogonalEdgeStyle;rounded=0;orthogonalLoop=1;jettySize=auto;html=1;exitX=0.5;exitY=1;exitDx=0;exitDy=0;entryX=0;entryY=0.5;entryDx=0;entryDy=0;dashed=1;" edge="1" parent="nDmpK35CxZWImTQ2deqX-1" source="Ew7H27AF6_pMdPy1NghV-6" target="Ew7H27AF6_pMdPy1NghV-9">
          <mxGeometry relative="1" as="geometry" />
        </mxCell>
        <mxCell id="Ew7H27AF6_pMdPy1NghV-42" style="edgeStyle=orthogonalEdgeStyle;rounded=0;orthogonalLoop=1;jettySize=auto;html=1;exitX=0.75;exitY=1;exitDx=0;exitDy=0;entryX=0.5;entryY=1;entryDx=0;entryDy=0;entryPerimeter=0;dashed=1;fontSize=9;fontColor=#FFFFFF;" edge="1" parent="nDmpK35CxZWImTQ2deqX-1" source="Ew7H27AF6_pMdPy1NghV-6" target="Ew7H27AF6_pMdPy1NghV-7">
          <mxGeometry relative="1" as="geometry">
            <Array as="points">
              <mxPoint x="340" y="240" />
              <mxPoint x="465" y="240" />
            </Array>
          </mxGeometry>
        </mxCell>
        <mxCell id="Ew7H27AF6_pMdPy1NghV-6" value="Command&amp;nbsp;&lt;br&gt;Microservice" style="rounded=0;whiteSpace=wrap;html=1;fillColor=#ffe6cc;strokeColor=none;" vertex="1" parent="nDmpK35CxZWImTQ2deqX-1">
          <mxGeometry x="250" y="150" width="120" height="60" as="geometry" />
        </mxCell>
        <mxCell id="Ew7H27AF6_pMdPy1NghV-7" value="command&amp;nbsp;&lt;br&gt;H2" style="shape=cylinder3;whiteSpace=wrap;html=1;boundedLbl=1;backgroundOutline=1;size=15;" vertex="1" parent="nDmpK35CxZWImTQ2deqX-1">
          <mxGeometry x="430" y="140" width="70" height="80" as="geometry" />
        </mxCell>
        <mxCell id="Ew7H27AF6_pMdPy1NghV-8" style="edgeStyle=orthogonalEdgeStyle;rounded=0;orthogonalLoop=1;jettySize=auto;html=1;exitX=0.602;exitY=0.978;exitDx=0;exitDy=0;entryX=0.5;entryY=0;entryDx=0;entryDy=0;dashed=1;exitPerimeter=0;" edge="1" parent="nDmpK35CxZWImTQ2deqX-1" source="Ew7H27AF6_pMdPy1NghV-9" target="Ew7H27AF6_pMdPy1NghV-13">
          <mxGeometry relative="1" as="geometry" />
        </mxCell>
        <mxCell id="Ew7H27AF6_pMdPy1NghV-9" value="Apache Kafka Topic" style="rounded=1;whiteSpace=wrap;html=1;fillColor=#fff2cc;strokeColor=#d6b656;" vertex="1" parent="nDmpK35CxZWImTQ2deqX-1">
          <mxGeometry x="250" y="250" width="180" height="30" as="geometry" />
        </mxCell>
        <mxCell id="Ew7H27AF6_pMdPy1NghV-10" value="" style="shape=image;verticalLabelPosition=bottom;labelBackgroundColor=#ffffff;verticalAlign=top;aspect=fixed;imageAspect=0;image=https://cdn.icon-icons.com/icons2/2248/PNG/512/apache_kafka_icon_138937.png;" vertex="1" parent="nDmpK35CxZWImTQ2deqX-1">
          <mxGeometry x="430" y="250" width="32" height="32" as="geometry" />
        </mxCell>
        <mxCell id="Ew7H27AF6_pMdPy1NghV-11" style="edgeStyle=orthogonalEdgeStyle;rounded=0;orthogonalLoop=1;jettySize=auto;html=1;exitX=1;exitY=0.5;exitDx=0;exitDy=0;entryX=0;entryY=0.5;entryDx=0;entryDy=0;entryPerimeter=0;dashed=1;" edge="1" parent="nDmpK35CxZWImTQ2deqX-1" source="Ew7H27AF6_pMdPy1NghV-12" target="Ew7H27AF6_pMdPy1NghV-16">
          <mxGeometry relative="1" as="geometry" />
        </mxCell>
        <mxCell id="Ew7H27AF6_pMdPy1NghV-35" style="edgeStyle=orthogonalEdgeStyle;rounded=0;orthogonalLoop=1;jettySize=auto;html=1;exitX=1;exitY=0.25;exitDx=0;exitDy=0;dashed=1;fontSize=9;fontColor=#FFFFFF;entryX=0;entryY=0.5;entryDx=0;entryDy=0;" edge="1" parent="nDmpK35CxZWImTQ2deqX-1" source="Ew7H27AF6_pMdPy1NghV-12" target="Ew7H27AF6_pMdPy1NghV-32">
          <mxGeometry relative="1" as="geometry">
            <mxPoint x="480" y="260" as="targetPoint" />
            <Array as="points">
              <mxPoint x="460" y="365" />
              <mxPoint x="460" y="265" />
            </Array>
          </mxGeometry>
        </mxCell>
        <mxCell id="Ew7H27AF6_pMdPy1NghV-12" value="Query&lt;br&gt;Microservice" style="rounded=0;whiteSpace=wrap;html=1;fillColor=#d5e8d4;strokeColor=#82b366;" vertex="1" parent="nDmpK35CxZWImTQ2deqX-1">
          <mxGeometry x="250" y="350" width="120" height="60" as="geometry" />
        </mxCell>
        <mxCell id="Ew7H27AF6_pMdPy1NghV-13" value="" style="rounded=0;whiteSpace=wrap;html=1;fillColor=#e1d5e7;strokeColor=#9673a6;" vertex="1" parent="nDmpK35CxZWImTQ2deqX-1">
          <mxGeometry x="348" y="335" width="20" height="20" as="geometry" />
        </mxCell>
        <mxCell id="Ew7H27AF6_pMdPy1NghV-14" value="KafkaListener" style="text;html=1;strokeColor=none;fillColor=none;align=center;verticalAlign=middle;whiteSpace=wrap;rounded=0;fontSize=9;" vertex="1" parent="nDmpK35CxZWImTQ2deqX-1">
          <mxGeometry x="380" y="330" width="40" height="20" as="geometry" />
        </mxCell>
        <mxCell id="Ew7H27AF6_pMdPy1NghV-15" style="edgeStyle=orthogonalEdgeStyle;rounded=0;orthogonalLoop=1;jettySize=auto;html=1;exitX=0.5;exitY=1;exitDx=0;exitDy=0;exitPerimeter=0;entryX=0.5;entryY=1;entryDx=0;entryDy=0;dashed=1;fontSize=9;" edge="1" parent="nDmpK35CxZWImTQ2deqX-1" source="Ew7H27AF6_pMdPy1NghV-16" target="Ew7H27AF6_pMdPy1NghV-12">
          <mxGeometry relative="1" as="geometry" />
        </mxCell>
        <mxCell id="Ew7H27AF6_pMdPy1NghV-16" value="query&lt;br&gt;H2" style="shape=cylinder3;whiteSpace=wrap;html=1;boundedLbl=1;backgroundOutline=1;size=15;" vertex="1" parent="nDmpK35CxZWImTQ2deqX-1">
          <mxGeometry x="510" y="340" width="70" height="80" as="geometry" />
        </mxCell>
        <mxCell id="Ew7H27AF6_pMdPy1NghV-17" value="" style="ellipse;whiteSpace=wrap;html=1;fillColor=#dae8fc;strokeColor=none;" vertex="1" parent="nDmpK35CxZWImTQ2deqX-1">
          <mxGeometry x="60" y="360" width="40" height="40" as="geometry" />
        </mxCell>
        <mxCell id="Ew7H27AF6_pMdPy1NghV-18" value="User" style="text;html=1;strokeColor=none;fillColor=none;align=center;verticalAlign=middle;whiteSpace=wrap;rounded=0;" vertex="1" parent="nDmpK35CxZWImTQ2deqX-1">
          <mxGeometry x="60" y="400" width="40" height="20" as="geometry" />
        </mxCell>
        <mxCell id="Ew7H27AF6_pMdPy1NghV-19" value="" style="shape=flexArrow;endArrow=classic;html=1;endWidth=30.697674418604652;endSize=8.411627906976745;width=23.72093023255814;" edge="1" parent="nDmpK35CxZWImTQ2deqX-1">
          <mxGeometry width="50" height="50" relative="1" as="geometry">
            <mxPoint x="100" y="379.71000000000004" as="sourcePoint" />
            <mxPoint x="250" y="379.7957142857142" as="targetPoint" />
          </mxGeometry>
        </mxCell>
        <mxCell id="Ew7H27AF6_pMdPy1NghV-20" value="GET" style="edgeLabel;html=1;align=center;verticalAlign=middle;resizable=0;points=[];" vertex="1" connectable="0" parent="Ew7H27AF6_pMdPy1NghV-19">
          <mxGeometry x="-0.1707" y="1" relative="1" as="geometry">
            <mxPoint as="offset" />
          </mxGeometry>
        </mxCell>
        <mxCell id="Ew7H27AF6_pMdPy1NghV-21" value="&lt;font color=&quot;#97d077&quot;&gt;ACEPTED&lt;/font&gt;" style="text;html=1;strokeColor=none;fillColor=none;align=center;verticalAlign=middle;whiteSpace=wrap;rounded=0;fontSize=9;" vertex="1" parent="nDmpK35CxZWImTQ2deqX-1">
          <mxGeometry x="145" y="190" width="40" height="20" as="geometry" />
        </mxCell>
        <mxCell id="Ew7H27AF6_pMdPy1NghV-22" value="1" style="ellipse;whiteSpace=wrap;html=1;aspect=fixed;fontSize=9;labelBackgroundColor=#000000;fontColor=#FFFFFF;fontStyle=1;fillColor=#000000;" vertex="1" parent="nDmpK35CxZWImTQ2deqX-1">
          <mxGeometry x="236" y="150" width="14" height="14" as="geometry" />
        </mxCell>
        <mxCell id="Ew7H27AF6_pMdPy1NghV-23" value="2" style="ellipse;whiteSpace=wrap;html=1;aspect=fixed;fontSize=9;labelBackgroundColor=#000000;fontColor=#FFFFFF;fontStyle=1;fillColor=#000000;" vertex="1" parent="nDmpK35CxZWImTQ2deqX-1">
          <mxGeometry x="393" y="164" width="14" height="14" as="geometry" />
        </mxCell>
        <mxCell id="Ew7H27AF6_pMdPy1NghV-24" value="3" style="ellipse;whiteSpace=wrap;html=1;aspect=fixed;fontSize=9;labelBackgroundColor=#000000;fontColor=#FFFFFF;fontStyle=1;fillColor=#000000;" vertex="1" parent="nDmpK35CxZWImTQ2deqX-1">
          <mxGeometry x="210" y="250" width="14" height="14" as="geometry" />
        </mxCell>
        <mxCell id="Ew7H27AF6_pMdPy1NghV-25" value="5" style="ellipse;whiteSpace=wrap;html=1;aspect=fixed;fontSize=9;labelBackgroundColor=#000000;fontColor=#FFFFFF;fontStyle=1;fillColor=#000000;" vertex="1" parent="nDmpK35CxZWImTQ2deqX-1">
          <mxGeometry x="334" y="326" width="14" height="14" as="geometry" />
        </mxCell>
        <mxCell id="Ew7H27AF6_pMdPy1NghV-26" value="6" style="ellipse;whiteSpace=wrap;html=1;aspect=fixed;fontSize=9;labelBackgroundColor=#000000;fontColor=#FFFFFF;fontStyle=1;fillColor=#000000;" vertex="1" parent="nDmpK35CxZWImTQ2deqX-1">
          <mxGeometry x="486" y="360" width="14" height="14" as="geometry" />
        </mxCell>
        <mxCell id="Ew7H27AF6_pMdPy1NghV-27" value="1" style="ellipse;whiteSpace=wrap;html=1;aspect=fixed;fontSize=9;labelBackgroundColor=#FF0000;fontColor=#FFFFFF;fontStyle=1;fillColor=#FF0000;labelBorderColor=none;strokeColor=none;" vertex="1" parent="nDmpK35CxZWImTQ2deqX-1">
          <mxGeometry x="110" y="355" width="14" height="14" as="geometry" />
        </mxCell>
        <mxCell id="Ew7H27AF6_pMdPy1NghV-28" value="2" style="ellipse;whiteSpace=wrap;html=1;aspect=fixed;fontSize=9;labelBackgroundColor=#FF0000;fontColor=#FFFFFF;fontStyle=1;fillColor=#FF0000;labelBorderColor=none;strokeColor=none;" vertex="1" parent="nDmpK35CxZWImTQ2deqX-1">
          <mxGeometry x="370" y="430" width="14" height="14" as="geometry" />
        </mxCell>
        <mxCell id="Ew7H27AF6_pMdPy1NghV-29" value="4" style="ellipse;whiteSpace=wrap;html=1;aspect=fixed;fontSize=9;labelBackgroundColor=#000000;fontColor=#FFFFFF;fontStyle=1;fillColor=#000000;" vertex="1" parent="nDmpK35CxZWImTQ2deqX-1">
          <mxGeometry x="124" y="193" width="14" height="14" as="geometry" />
        </mxCell>
        <mxCell id="Ew7H27AF6_pMdPy1NghV-30" value="&lt;font color=&quot;#97d077&quot;&gt;OK&lt;/font&gt;" style="text;html=1;strokeColor=none;fillColor=none;align=center;verticalAlign=middle;whiteSpace=wrap;rounded=0;fontSize=9;" vertex="1" parent="nDmpK35CxZWImTQ2deqX-1">
          <mxGeometry x="148" y="390" width="40" height="20" as="geometry" />
        </mxCell>
        <mxCell id="Ew7H27AF6_pMdPy1NghV-31" value="3" style="ellipse;whiteSpace=wrap;html=1;aspect=fixed;fontSize=9;labelBackgroundColor=#FF0000;fontColor=#FFFFFF;fontStyle=1;fillColor=#FF0000;labelBorderColor=none;strokeColor=none;" vertex="1" parent="nDmpK35CxZWImTQ2deqX-1">
          <mxGeometry x="143" y="393" width="14" height="14" as="geometry" />
        </mxCell>
        <mxCell id="Ew7H27AF6_pMdPy1NghV-38" style="edgeStyle=orthogonalEdgeStyle;rounded=0;orthogonalLoop=1;jettySize=auto;html=1;exitX=0.5;exitY=0;exitDx=0;exitDy=0;entryX=0.5;entryY=0;entryDx=0;entryDy=0;dashed=1;fontSize=9;fontColor=#FFFFFF;" edge="1" parent="nDmpK35CxZWImTQ2deqX-1" source="Ew7H27AF6_pMdPy1NghV-32" target="Ew7H27AF6_pMdPy1NghV-37">
          <mxGeometry relative="1" as="geometry" />
        </mxCell>
        <mxCell id="Ew7H27AF6_pMdPy1NghV-32" value="Apache Kafka Topic" style="rounded=1;whiteSpace=wrap;html=1;fillColor=#fff2cc;strokeColor=#d6b656;" vertex="1" parent="nDmpK35CxZWImTQ2deqX-1">
          <mxGeometry x="500" y="250" width="180" height="30" as="geometry" />
        </mxCell>
        <mxCell id="Ew7H27AF6_pMdPy1NghV-33" value="" style="shape=image;verticalLabelPosition=bottom;labelBackgroundColor=#ffffff;verticalAlign=top;aspect=fixed;imageAspect=0;image=https://cdn.icon-icons.com/icons2/2248/PNG/512/apache_kafka_icon_138937.png;" vertex="1" parent="nDmpK35CxZWImTQ2deqX-1">
          <mxGeometry x="680" y="250" width="32" height="32" as="geometry" />
        </mxCell>
        <mxCell id="Ew7H27AF6_pMdPy1NghV-36" value="7" style="ellipse;whiteSpace=wrap;html=1;aspect=fixed;fontSize=9;labelBackgroundColor=#000000;fontColor=#FFFFFF;fontStyle=1;fillColor=#000000;" vertex="1" parent="nDmpK35CxZWImTQ2deqX-1">
          <mxGeometry x="462" y="312" width="14" height="14" as="geometry" />
        </mxCell>
        <mxCell id="Ew7H27AF6_pMdPy1NghV-37" value="" style="rounded=0;whiteSpace=wrap;html=1;fillColor=#e1d5e7;strokeColor=#9673a6;" vertex="1" parent="nDmpK35CxZWImTQ2deqX-1">
          <mxGeometry x="360" y="140" width="20" height="20" as="geometry" />
        </mxCell>
        <mxCell id="Ew7H27AF6_pMdPy1NghV-39" value="8" style="ellipse;whiteSpace=wrap;html=1;aspect=fixed;fontSize=9;labelBackgroundColor=#000000;fontColor=#FFFFFF;fontStyle=1;fillColor=#000000;" vertex="1" parent="nDmpK35CxZWImTQ2deqX-1">
          <mxGeometry x="420" y="100" width="14" height="14" as="geometry" />
        </mxCell>
        <mxCell id="Ew7H27AF6_pMdPy1NghV-40" value="save Phone" style="text;html=1;strokeColor=none;fillColor=none;align=center;verticalAlign=middle;whiteSpace=wrap;rounded=0;labelBackgroundColor=#000000;fontSize=9;fontColor=#FFFFFF;" vertex="1" parent="nDmpK35CxZWImTQ2deqX-1">
          <mxGeometry x="380" y="183" width="40" height="20" as="geometry" />
        </mxCell>
        <mxCell id="Ew7H27AF6_pMdPy1NghV-41" value="save&amp;nbsp;&lt;br&gt;Event" style="text;html=1;strokeColor=none;fillColor=none;align=center;verticalAlign=middle;whiteSpace=wrap;rounded=0;labelBackgroundColor=#000000;fontSize=9;fontColor=#FFFFFF;" vertex="1" parent="nDmpK35CxZWImTQ2deqX-1">
          <mxGeometry x="380" y="217" width="40" height="20" as="geometry" />
        </mxCell>
        <mxCell id="Ew7H27AF6_pMdPy1NghV-43" value="9" style="ellipse;whiteSpace=wrap;html=1;aspect=fixed;fontSize=9;labelBackgroundColor=#000000;fontColor=#FFFFFF;fontStyle=1;fillColor=#000000;" vertex="1" parent="nDmpK35CxZWImTQ2deqX-1">
          <mxGeometry x="368" y="220" width="14" height="14" as="geometry" />
        </mxCell>
        <mxCell id="Ew7H27AF6_pMdPy1NghV-45" value="Id del evento" style="text;html=1;strokeColor=none;fillColor=none;align=center;verticalAlign=middle;whiteSpace=wrap;rounded=0;labelBackgroundColor=none;fontSize=9;" vertex="1" parent="nDmpK35CxZWImTQ2deqX-1">
          <mxGeometry x="143" y="203" width="40" height="20" as="geometry" />
        </mxCell>
        <mxCell id="Ew7H27AF6_pMdPy1NghV-51" value="" style="shape=flexArrow;endArrow=classic;html=1;fontSize=9;fontColor=#000000;width=33.10344827586207;endSize=10.710344827586207;" edge="1" parent="nDmpK35CxZWImTQ2deqX-1">
          <mxGeometry width="50" height="50" relative="1" as="geometry">
            <mxPoint x="95" y="250" as="sourcePoint" />
            <mxPoint x="205" y="250" as="targetPoint" />
            <Array as="points">
              <mxPoint x="155" y="250" />
            </Array>
          </mxGeometry>
        </mxCell>
        <mxCell id="Ew7H27AF6_pMdPy1NghV-52" value="GET" style="edgeLabel;html=1;align=center;verticalAlign=middle;resizable=0;points=[];fontSize=12;fontColor=#000000;fontStyle=0" vertex="1" connectable="0" parent="Ew7H27AF6_pMdPy1NghV-51">
          <mxGeometry x="-0.6082" y="5" relative="1" as="geometry">
            <mxPoint x="14.62" y="5" as="offset" />
          </mxGeometry>
        </mxCell>
        <mxCell id="Ew7H27AF6_pMdPy1NghV-53" value="&lt;font color=&quot;#97d077&quot;&gt;OK &lt;br&gt;NOT FOUND&lt;/font&gt;" style="text;html=1;strokeColor=none;fillColor=none;align=center;verticalAlign=middle;whiteSpace=wrap;rounded=0;fontSize=9;" vertex="1" parent="nDmpK35CxZWImTQ2deqX-1">
          <mxGeometry x="90" y="270" width="70" height="20" as="geometry" />
        </mxCell>
        <mxCell id="0gVeb_RJPJW1ZxWyVQUz-1" value="KafkaListener" style="text;html=1;strokeColor=none;fillColor=none;align=center;verticalAlign=middle;whiteSpace=wrap;rounded=0;fontSize=9;" vertex="1" parent="nDmpK35CxZWImTQ2deqX-1">
          <mxGeometry x="390" y="130" width="40" height="20" as="geometry" />
        </mxCell>
        <mxCell id="a2eAsUC0NsT7DbOl51_4-0" value="&lt;font style=&quot;font-size: 9px;&quot; color=&quot;#ff0000&quot;&gt;NOT FOUND&lt;/font&gt;" style="text;html=1;strokeColor=none;fillColor=none;align=center;verticalAlign=middle;whiteSpace=wrap;rounded=0;labelBackgroundColor=none;fontSize=9;fontColor=#000000;" vertex="1" parent="nDmpK35CxZWImTQ2deqX-1">
          <mxGeometry x="157" y="407" width="63" height="20" as="geometry" />
        </mxCell>
      </root>
    </mxGraphModel>
  </diagram>
</mxfile>
